<?xml version="1.0" encoding="iso-8859-1"?>
<!-- Generator: Adobe Illustrator 19.0.0, SVG Export Plug-In . SVG Version: 6.00 Build 0)  -->
<svg version="1.1" id="Layer_1" xmlns="http://www.w3.org/2000/svg" xmlns:xlink="http://www.w3.org/1999/xlink" x="0px" y="0px"
	 viewBox="0 0 505 505" style="enable-background:new 0 0 505 505;" xml:space="preserve">
<circle style="fill:#FFD05B;" cx="252.5" cy="252.5" r="252.5"/>
<path style="fill:#FFFFFF;" d="M339.3,402.9H165.7L78.8,252.5l86.8-150.4h173.7l86.9,150.4L339.3,402.9z M172.5,391.1h160l80-138.6
	l-80-138.6h-160l-80,138.6L172.5,391.1z"/>
<rect id="SVGCleanerId_0" x="85.7" y="246.6" style="fill:#FFFFFF;" width="333.6" height="11.8"/>
<g transform="matrix(0.4832 0.8755 -0.8755 0.4832 356.44 -91.83)">
	
		<rect id="SVGCleanerId_0_1_" x="85.713" y="246.597" transform="matrix(-0.4832 -0.8755 0.8755 -0.4832 153.4624 595.5804)" style="fill:#FFFFFF;" width="333.597" height="11.8"/>
</g>
<rect x="246.616" y="85.695" transform="matrix(-0.8756 -0.483 0.483 -0.8756 351.6666 595.5444)" style="fill:#FFFFFF;" width="11.8" height="333.594"/>
<circle style="fill:#324A5E;" cx="334.7" cy="109.5" r="33.9"/>
<g>
	<circle style="fill:#54C0EB;" cx="170.5" cy="109.5" r="33.9"/>
	<circle style="fill:#54C0EB;" cx="334.7" cy="393.7" r="33.9"/>
</g>
<circle style="fill:#324A5E;" cx="170.5" cy="393.7" r="33.9"/>
<circle style="fill:#FF7058;" cx="419.3" cy="252.5" r="33.9"/>
<circle style="fill:#ACB3BA;" cx="252.5" cy="252.5" r="33.9"/>
<circle style="fill:#FF7058;" cx="85.7" cy="252.5" r="33.9"/>
<g>
</g>
<g>
</g>
<g>
</g>
<g>
</g>
<g>
</g>
<g>
</g>
<g>
</g>
<g>
</g>
<g>
</g>
<g>
</g>
<g>
</g>
<g>
</g>
<g>
</g>
<g>
</g>
<g>
</g>
</svg>
